<?xml version="1.0" standalone="no"?>
<!DOCTYPE svg PUBLIC "-//W3C//DTD SVG 20010904//EN"
 "http://www.w3.org/TR/2001/REC-SVG-20010904/DTD/svg10.dtd">
<svg version="1.0" xmlns="http://www.w3.org/2000/svg"
 width="732.000000pt" height="732.000000pt" viewBox="0 0 732.000000 732.000000"
 preserveAspectRatio="xMidYMid meet">
<metadata>
Created by potrace 1.11, written by Peter Selinger 2001-2013
</metadata>
<g transform="translate(0.000000,732.000000) scale(0.100000,-0.100000)"
fill="#000000" stroke="none">
<path d="M2049 6396 c-2 -2 -42 -6 -89 -10 -163 -13 -447 -82 -577 -142 -17
-8 -34 -14 -38 -14 -16 0 -236 -116 -320 -168 -143 -90 -251 -177 -380 -306
-125 -126 -131 -133 -206 -231 -199 -261 -349 -602 -403 -915 -3 -19 -8 -46
-11 -60 -14 -69 -20 -171 -20 -330 0 -161 4 -216 20 -340 7 -49 71 -317 84
-353 5 -12 10 -26 11 -32 10 -38 98 -233 138 -304 26 -47 49 -90 51 -96 9 -20
116 -172 169 -240 100 -126 396 -405 430 -405 6 0 12 -4 14 -9 5 -14 182 -123
285 -175 194 -98 432 -175 633 -205 89 -13 131 -19 147 -20 10 -1 12 -127 12
-557 0 -306 2 -558 4 -560 5 -5 258 80 302 101 17 8 55 24 85 37 411 171 844
483 1162 839 200 224 374 481 497 735 29 60 57 117 62 127 29 54 112 283 147
404 70 240 105 429 128 680 12 139 6 511 -10 613 -3 14 -7 50 -10 80 -9 77
-19 133 -35 198 -6 23 -15 59 -21 80 -56 221 -201 506 -369 727 -219 289 -566
553 -901 688 -25 10 -54 22 -65 27 -84 36 -338 101 -445 115 -30 4 -64 9 -75
12 -24 6 -400 14 -406 9z"/>
<path d="M4905 6390 c-105 -11 -181 -24 -275 -46 -36 -9 -74 -17 -84 -20 -92
-19 -440 -158 -475 -190 -2 -2 38 -47 88 -101 257 -277 442 -578 568 -923 33
-90 41 -115 78 -257 16 -62 39 -199 51 -298 3 -33 8 -69 10 -80 6 -29 17 -308
17 -400 0 -87 -10 -276 -18 -340 -2 -22 -7 -62 -10 -90 -10 -80 -22 -166 -30
-205 -2 -14 -12 -61 -21 -105 -68 -347 -220 -755 -397 -1066 l-54 -97 23 -11
c42 -19 266 -80 349 -95 30 -6 115 -17 153 -21 19 -2 36 -6 40 -10 4 -3 7
-255 7 -558 0 -545 1 -552 20 -549 50 9 275 90 380 137 109 49 300 147 319
163 10 10 19 15 20 13 1 -5 8 -1 151 91 104 68 238 165 279 203 6 6 38 32 71
59 60 50 253 240 331 327 150 166 327 423 452 659 160 303 310 768 338 1053 3
34 8 65 10 68 24 41 24 724 0 801 -3 7 -7 38 -10 68 -5 50 -8 66 -20 125 -11
55 -20 88 -48 175 -189 599 -631 1091 -1208 1345 -138 60 -380 135 -485 150
-79 11 -123 18 -140 22 -35 8 -408 10 -480 3z"/>
</g>
</svg>
